<mxfile host="app.diagrams.net" modified="2023-11-01T11:06:51.809Z" agent="Mozilla/5.0 (Windows NT 10.0; Win64; x64) AppleWebKit/537.36 (KHTML, like Gecko) Chrome/116.0.5845.931 YaBrowser/23.9.3.931 Yowser/2.5 Safari/537.36" etag="ea9YI40pG66EVwYbjoZv" version="22.0.8" type="device">
  <diagram name="Страница — 1" id="QAHTH0Z4BjNln1DEmZ7t">
    <mxGraphModel dx="668" dy="793" grid="1" gridSize="10" guides="1" tooltips="1" connect="1" arrows="1" fold="1" page="1" pageScale="1" pageWidth="827" pageHeight="1169" math="0" shadow="0">
      <root>
        <mxCell id="0" />
        <mxCell id="1" parent="0" />
        <mxCell id="fANQl5BoGv8R9eAu1Ix4-14" style="edgeStyle=orthogonalEdgeStyle;rounded=0;orthogonalLoop=1;jettySize=auto;html=1;endArrow=none;endFill=0;" edge="1" parent="1" source="fANQl5BoGv8R9eAu1Ix4-2" target="fANQl5BoGv8R9eAu1Ix4-3">
          <mxGeometry relative="1" as="geometry" />
        </mxCell>
        <mxCell id="fANQl5BoGv8R9eAu1Ix4-2" value="Actor" style="shape=umlActor;verticalLabelPosition=bottom;verticalAlign=top;html=1;" vertex="1" parent="1">
          <mxGeometry x="30" y="160" width="30" height="60" as="geometry" />
        </mxCell>
        <mxCell id="fANQl5BoGv8R9eAu1Ix4-8" style="edgeStyle=orthogonalEdgeStyle;rounded=0;orthogonalLoop=1;jettySize=auto;html=1;endArrow=none;endFill=0;" edge="1" parent="1" source="fANQl5BoGv8R9eAu1Ix4-3" target="fANQl5BoGv8R9eAu1Ix4-4">
          <mxGeometry relative="1" as="geometry">
            <Array as="points">
              <mxPoint x="230" y="65" />
            </Array>
          </mxGeometry>
        </mxCell>
        <mxCell id="fANQl5BoGv8R9eAu1Ix4-9" style="edgeStyle=orthogonalEdgeStyle;rounded=0;orthogonalLoop=1;jettySize=auto;html=1;endArrow=none;endFill=0;" edge="1" parent="1" source="fANQl5BoGv8R9eAu1Ix4-3" target="fANQl5BoGv8R9eAu1Ix4-5">
          <mxGeometry relative="1" as="geometry">
            <Array as="points">
              <mxPoint x="230" y="325" />
            </Array>
          </mxGeometry>
        </mxCell>
        <mxCell id="fANQl5BoGv8R9eAu1Ix4-13" style="edgeStyle=orthogonalEdgeStyle;rounded=0;orthogonalLoop=1;jettySize=auto;html=1;endArrow=none;endFill=0;" edge="1" parent="1" source="fANQl5BoGv8R9eAu1Ix4-3" target="fANQl5BoGv8R9eAu1Ix4-10">
          <mxGeometry relative="1" as="geometry" />
        </mxCell>
        <mxCell id="fANQl5BoGv8R9eAu1Ix4-3" value="Авторизация" style="ellipse;whiteSpace=wrap;html=1;" vertex="1" parent="1">
          <mxGeometry x="150" y="155" width="140" height="70" as="geometry" />
        </mxCell>
        <mxCell id="fANQl5BoGv8R9eAu1Ix4-16" style="edgeStyle=orthogonalEdgeStyle;rounded=0;orthogonalLoop=1;jettySize=auto;html=1;endArrow=none;endFill=0;" edge="1" parent="1" source="fANQl5BoGv8R9eAu1Ix4-4" target="fANQl5BoGv8R9eAu1Ix4-15">
          <mxGeometry relative="1" as="geometry" />
        </mxCell>
        <mxCell id="fANQl5BoGv8R9eAu1Ix4-4" value="Консультация" style="ellipse;whiteSpace=wrap;html=1;" vertex="1" parent="1">
          <mxGeometry x="330" y="30" width="140" height="70" as="geometry" />
        </mxCell>
        <mxCell id="fANQl5BoGv8R9eAu1Ix4-5" value="Просмотр карты" style="ellipse;whiteSpace=wrap;html=1;" vertex="1" parent="1">
          <mxGeometry x="330" y="290" width="140" height="70" as="geometry" />
        </mxCell>
        <mxCell id="fANQl5BoGv8R9eAu1Ix4-10" value="Запись на анализы" style="ellipse;whiteSpace=wrap;html=1;" vertex="1" parent="1">
          <mxGeometry x="330" y="155" width="140" height="70" as="geometry" />
        </mxCell>
        <mxCell id="fANQl5BoGv8R9eAu1Ix4-18" style="edgeStyle=orthogonalEdgeStyle;rounded=0;orthogonalLoop=1;jettySize=auto;html=1;endArrow=none;endFill=0;" edge="1" parent="1" source="fANQl5BoGv8R9eAu1Ix4-15" target="fANQl5BoGv8R9eAu1Ix4-17">
          <mxGeometry relative="1" as="geometry" />
        </mxCell>
        <mxCell id="fANQl5BoGv8R9eAu1Ix4-15" value="Направление" style="ellipse;whiteSpace=wrap;html=1;" vertex="1" parent="1">
          <mxGeometry x="530" y="30" width="140" height="70" as="geometry" />
        </mxCell>
        <mxCell id="fANQl5BoGv8R9eAu1Ix4-20" style="edgeStyle=orthogonalEdgeStyle;rounded=0;orthogonalLoop=1;jettySize=auto;html=1;endArrow=none;endFill=0;" edge="1" parent="1" source="fANQl5BoGv8R9eAu1Ix4-17" target="fANQl5BoGv8R9eAu1Ix4-19">
          <mxGeometry relative="1" as="geometry" />
        </mxCell>
        <mxCell id="fANQl5BoGv8R9eAu1Ix4-17" value="Выбор специалиста" style="ellipse;whiteSpace=wrap;html=1;" vertex="1" parent="1">
          <mxGeometry x="720" y="30" width="140" height="70" as="geometry" />
        </mxCell>
        <mxCell id="fANQl5BoGv8R9eAu1Ix4-23" style="edgeStyle=orthogonalEdgeStyle;rounded=0;orthogonalLoop=1;jettySize=auto;html=1;entryX=1;entryY=0.5;entryDx=0;entryDy=0;endArrow=none;endFill=0;" edge="1" parent="1" source="fANQl5BoGv8R9eAu1Ix4-19" target="fANQl5BoGv8R9eAu1Ix4-21">
          <mxGeometry relative="1" as="geometry">
            <Array as="points">
              <mxPoint x="1000" y="190" />
            </Array>
          </mxGeometry>
        </mxCell>
        <mxCell id="fANQl5BoGv8R9eAu1Ix4-19" value="Дата" style="ellipse;whiteSpace=wrap;html=1;" vertex="1" parent="1">
          <mxGeometry x="930" y="30" width="140" height="70" as="geometry" />
        </mxCell>
        <mxCell id="fANQl5BoGv8R9eAu1Ix4-22" style="edgeStyle=orthogonalEdgeStyle;rounded=0;orthogonalLoop=1;jettySize=auto;html=1;endArrow=block;endFill=0;" edge="1" parent="1" source="fANQl5BoGv8R9eAu1Ix4-21" target="fANQl5BoGv8R9eAu1Ix4-10">
          <mxGeometry relative="1" as="geometry" />
        </mxCell>
        <mxCell id="fANQl5BoGv8R9eAu1Ix4-31" style="edgeStyle=orthogonalEdgeStyle;rounded=0;orthogonalLoop=1;jettySize=auto;html=1;endArrow=block;endFill=0;" edge="1" parent="1" source="fANQl5BoGv8R9eAu1Ix4-21" target="fANQl5BoGv8R9eAu1Ix4-30">
          <mxGeometry relative="1" as="geometry">
            <Array as="points">
              <mxPoint x="600" y="325" />
            </Array>
          </mxGeometry>
        </mxCell>
        <mxCell id="fANQl5BoGv8R9eAu1Ix4-21" value="Результат приёма" style="ellipse;whiteSpace=wrap;html=1;" vertex="1" parent="1">
          <mxGeometry x="530" y="155" width="140" height="70" as="geometry" />
        </mxCell>
        <mxCell id="fANQl5BoGv8R9eAu1Ix4-25" style="edgeStyle=orthogonalEdgeStyle;rounded=0;orthogonalLoop=1;jettySize=auto;html=1;endArrow=block;endFill=0;" edge="1" parent="1" source="fANQl5BoGv8R9eAu1Ix4-21" target="fANQl5BoGv8R9eAu1Ix4-5">
          <mxGeometry relative="1" as="geometry">
            <mxPoint x="660" y="360" as="sourcePoint" />
            <mxPoint x="480" y="200" as="targetPoint" />
            <Array as="points">
              <mxPoint x="600" y="325" />
            </Array>
          </mxGeometry>
        </mxCell>
        <mxCell id="fANQl5BoGv8R9eAu1Ix4-29" style="rounded=0;orthogonalLoop=1;jettySize=auto;html=1;endArrow=block;endFill=0;" edge="1" parent="1" source="fANQl5BoGv8R9eAu1Ix4-21" target="fANQl5BoGv8R9eAu1Ix4-15">
          <mxGeometry relative="1" as="geometry">
            <mxPoint x="610" y="235" as="sourcePoint" />
            <mxPoint x="480" y="335" as="targetPoint" />
          </mxGeometry>
        </mxCell>
        <mxCell id="fANQl5BoGv8R9eAu1Ix4-30" value="Стационар" style="ellipse;whiteSpace=wrap;html=1;" vertex="1" parent="1">
          <mxGeometry x="930" y="290" width="140" height="70" as="geometry" />
        </mxCell>
      </root>
    </mxGraphModel>
  </diagram>
</mxfile>
